<svg width="281" height="236" viewBox="0 0 281 236" fill="none" xmlns="http://www.w3.org/2000/svg">
<rect x="234" y="45" width="46" height="71" fill="#FF9595"/>
<path d="M234 146H280V181.5V217H234V146Z" fill="#FFEE95"/>
<line x1="40" y1="220.5" x2="280" y2="220.5" stroke="black"/>
<line x1="40" y1="220.5" x2="280" y2="220.5" stroke="black"/>
<line x1="40" y1="195.5" x2="280" y2="195.5" stroke="black"/>
<line x1="40" y1="170.5" x2="280" y2="170.5" stroke="black"/>
<line x1="40" y1="145.5" x2="280" y2="145.5" stroke="black"/>
<line x1="40" y1="120.5" x2="280" y2="120.5" stroke="black"/>
<line x1="40" y1="95.5" x2="280" y2="95.5" stroke="black"/>
<line x1="40" y1="70.5" x2="280" y2="70.5" stroke="black"/>
<line x1="40" y1="45.5" x2="280" y2="45.5" stroke="black"/>
<line x1="40" y1="20.5" x2="280" y2="20.5" stroke="black"/>
<line x1="50.5" y1="21" x2="50.5" y2="221" stroke="black"/>
<line x1="96.5" y1="21" x2="96.5" y2="221" stroke="black"/>
<line x1="142.5" y1="21" x2="142.5" y2="221" stroke="black"/>
<line x1="188.5" y1="21" x2="188.5" y2="221" stroke="black"/>
<line x1="234.5" y1="21" x2="234.5" y2="221" stroke="black"/>
<line x1="280.5" y1="21" x2="280.5" y2="221" stroke="black"/>
<path d="M12.5888 49.2727V58H11.532V50.3807H11.4808L9.35014 51.7955V50.7216L11.532 49.2727H12.5888ZM17.9453 58.1193C17.3033 58.1193 16.7564 57.9446 16.3047 57.5952C15.853 57.2429 15.5078 56.733 15.2692 56.0653C15.0305 55.3949 14.9112 54.5852 14.9112 53.6364C14.9112 52.6932 15.0305 51.8878 15.2692 51.2202C15.5107 50.5497 15.8572 50.0384 16.3089 49.6861C16.7635 49.331 17.3089 49.1534 17.9453 49.1534C18.5817 49.1534 19.1257 49.331 19.5774 49.6861C20.032 50.0384 20.3786 50.5497 20.6172 51.2202C20.8587 51.8878 20.9794 52.6932 20.9794 53.6364C20.9794 54.5852 20.8601 55.3949 20.6214 56.0653C20.3828 56.733 20.0376 57.2429 19.5859 57.5952C19.1342 57.9446 18.5874 58.1193 17.9453 58.1193ZM17.9453 57.1818C18.5817 57.1818 19.076 56.875 19.4283 56.2614C19.7805 55.6477 19.9567 54.7727 19.9567 53.6364C19.9567 52.8807 19.8757 52.2372 19.7138 51.706C19.5547 51.1747 19.3246 50.7699 19.0234 50.4915C18.7251 50.2131 18.3658 50.0739 17.9453 50.0739C17.3146 50.0739 16.8217 50.3849 16.4666 51.0071C16.1115 51.6264 15.9339 52.5028 15.9339 53.6364C15.9339 54.392 16.0135 55.0341 16.1726 55.5625C16.3317 56.0909 16.5604 56.4929 16.8587 56.7685C17.1598 57.044 17.522 57.1818 17.9453 57.1818ZM23.3487 56.8835C23.1385 56.8835 22.9581 56.8082 22.8075 56.6577C22.657 56.5071 22.5817 56.3267 22.5817 56.1165C22.5817 55.9062 22.657 55.7259 22.8075 55.5753C22.9581 55.4247 23.1385 55.3494 23.3487 55.3494C23.5589 55.3494 23.7393 55.4247 23.8899 55.5753C24.0405 55.7259 24.1158 55.9062 24.1158 56.1165C24.1158 56.2557 24.0803 56.3835 24.0092 56.5C23.9411 56.6165 23.8487 56.7102 23.7322 56.7812C23.6186 56.8494 23.4908 56.8835 23.3487 56.8835ZM23.3487 52.4688C23.1385 52.4688 22.9581 52.3935 22.8075 52.2429C22.657 52.0923 22.5817 51.9119 22.5817 51.7017C22.5817 51.4915 22.657 51.3111 22.8075 51.1605C22.9581 51.0099 23.1385 50.9347 23.3487 50.9347C23.5589 50.9347 23.7393 51.0099 23.8899 51.1605C24.0405 51.3111 24.1158 51.4915 24.1158 51.7017C24.1158 51.8409 24.0803 51.9688 24.0092 52.0852C23.9411 52.2017 23.8487 52.2955 23.7322 52.3665C23.6186 52.4347 23.4908 52.4688 23.3487 52.4688ZM28.75 58.1193C28.108 58.1193 27.5611 57.9446 27.1094 57.5952C26.6577 57.2429 26.3125 56.733 26.0739 56.0653C25.8352 55.3949 25.7159 54.5852 25.7159 53.6364C25.7159 52.6932 25.8352 51.8878 26.0739 51.2202C26.3153 50.5497 26.6619 50.0384 27.1136 49.6861C27.5682 49.331 28.1136 49.1534 28.75 49.1534C29.3864 49.1534 29.9304 49.331 30.3821 49.6861C30.8366 50.0384 31.1832 50.5497 31.4219 51.2202C31.6634 51.8878 31.7841 52.6932 31.7841 53.6364C31.7841 54.5852 31.6648 55.3949 31.4261 56.0653C31.1875 56.733 30.8423 57.2429 30.3906 57.5952C29.9389 57.9446 29.392 58.1193 28.75 58.1193ZM28.75 57.1818C29.3864 57.1818 29.8807 56.875 30.233 56.2614C30.5852 55.6477 30.7614 54.7727 30.7614 53.6364C30.7614 52.8807 30.6804 52.2372 30.5185 51.706C30.3594 51.1747 30.1293 50.7699 29.8281 50.4915C29.5298 50.2131 29.1705 50.0739 28.75 50.0739C28.1193 50.0739 27.6264 50.3849 27.2713 51.0071C26.9162 51.6264 26.7386 52.5028 26.7386 53.6364C26.7386 54.392 26.8182 55.0341 26.9773 55.5625C27.1364 56.0909 27.3651 56.4929 27.6634 56.7685C27.9645 57.044 28.3267 57.1818 28.75 57.1818ZM36.25 58.1193C35.608 58.1193 35.0611 57.9446 34.6094 57.5952C34.1577 57.2429 33.8125 56.733 33.5739 56.0653C33.3352 55.3949 33.2159 54.5852 33.2159 53.6364C33.2159 52.6932 33.3352 51.8878 33.5739 51.2202C33.8153 50.5497 34.1619 50.0384 34.6136 49.6861C35.0682 49.331 35.6136 49.1534 36.25 49.1534C36.8864 49.1534 37.4304 49.331 37.8821 49.6861C38.3366 50.0384 38.6832 50.5497 38.9219 51.2202C39.1634 51.8878 39.2841 52.6932 39.2841 53.6364C39.2841 54.5852 39.1648 55.3949 38.9261 56.0653C38.6875 56.733 38.3423 57.2429 37.8906 57.5952C37.4389 57.9446 36.892 58.1193 36.25 58.1193ZM36.25 57.1818C36.8864 57.1818 37.3807 56.875 37.733 56.2614C38.0852 55.6477 38.2614 54.7727 38.2614 53.6364C38.2614 52.8807 38.1804 52.2372 38.0185 51.706C37.8594 51.1747 37.6293 50.7699 37.3281 50.4915C37.0298 50.2131 36.6705 50.0739 36.25 50.0739C35.6193 50.0739 35.1264 50.3849 34.7713 51.0071C34.4162 51.6264 34.2386 52.5028 34.2386 53.6364C34.2386 54.392 34.3182 55.0341 34.4773 55.5625C34.6364 56.0909 34.8651 56.4929 35.1634 56.7685C35.4645 57.044 35.8267 57.1818 36.25 57.1818Z" fill="black"/>
<path d="M14.5107 74.2727V83H13.4538V75.3807H13.4027L11.272 76.7955V75.7216L13.4538 74.2727H14.5107ZM20.0888 74.2727V83H19.032V75.3807H18.9808L16.8501 76.7955V75.7216L19.032 74.2727H20.0888ZM23.3487 81.8835C23.1385 81.8835 22.9581 81.8082 22.8075 81.6577C22.657 81.5071 22.5817 81.3267 22.5817 81.1165C22.5817 80.9062 22.657 80.7259 22.8075 80.5753C22.9581 80.4247 23.1385 80.3494 23.3487 80.3494C23.5589 80.3494 23.7393 80.4247 23.8899 80.5753C24.0405 80.7259 24.1158 80.9062 24.1158 81.1165C24.1158 81.2557 24.0803 81.3835 24.0092 81.5C23.9411 81.6165 23.8487 81.7102 23.7322 81.7812C23.6186 81.8494 23.4908 81.8835 23.3487 81.8835ZM23.3487 77.4688C23.1385 77.4688 22.9581 77.3935 22.8075 77.2429C22.657 77.0923 22.5817 76.9119 22.5817 76.7017C22.5817 76.4915 22.657 76.3111 22.8075 76.1605C22.9581 76.0099 23.1385 75.9347 23.3487 75.9347C23.5589 75.9347 23.7393 76.0099 23.8899 76.1605C24.0405 76.3111 24.1158 76.4915 24.1158 76.7017C24.1158 76.8409 24.0803 76.9688 24.0092 77.0852C23.9411 77.2017 23.8487 77.2955 23.7322 77.3665C23.6186 77.4347 23.4908 77.4688 23.3487 77.4688ZM28.75 83.1193C28.108 83.1193 27.5611 82.9446 27.1094 82.5952C26.6577 82.2429 26.3125 81.733 26.0739 81.0653C25.8352 80.3949 25.7159 79.5852 25.7159 78.6364C25.7159 77.6932 25.8352 76.8878 26.0739 76.2202C26.3153 75.5497 26.6619 75.0384 27.1136 74.6861C27.5682 74.331 28.1136 74.1534 28.75 74.1534C29.3864 74.1534 29.9304 74.331 30.3821 74.6861C30.8366 75.0384 31.1832 75.5497 31.4219 76.2202C31.6634 76.8878 31.7841 77.6932 31.7841 78.6364C31.7841 79.5852 31.6648 80.3949 31.4261 81.0653C31.1875 81.733 30.8423 82.2429 30.3906 82.5952C29.9389 82.9446 29.392 83.1193 28.75 83.1193ZM28.75 82.1818C29.3864 82.1818 29.8807 81.875 30.233 81.2614C30.5852 80.6477 30.7614 79.7727 30.7614 78.6364C30.7614 77.8807 30.6804 77.2372 30.5185 76.706C30.3594 76.1747 30.1293 75.7699 29.8281 75.4915C29.5298 75.2131 29.1705 75.0739 28.75 75.0739C28.1193 75.0739 27.6264 75.3849 27.2713 76.0071C26.9162 76.6264 26.7386 77.5028 26.7386 78.6364C26.7386 79.392 26.8182 80.0341 26.9773 80.5625C27.1364 81.0909 27.3651 81.4929 27.6634 81.7685C27.9645 82.044 28.3267 82.1818 28.75 82.1818ZM36.25 83.1193C35.608 83.1193 35.0611 82.9446 34.6094 82.5952C34.1577 82.2429 33.8125 81.733 33.5739 81.0653C33.3352 80.3949 33.2159 79.5852 33.2159 78.6364C33.2159 77.6932 33.3352 76.8878 33.5739 76.2202C33.8153 75.5497 34.1619 75.0384 34.6136 74.6861C35.0682 74.331 35.6136 74.1534 36.25 74.1534C36.8864 74.1534 37.4304 74.331 37.8821 74.6861C38.3366 75.0384 38.6832 75.5497 38.9219 76.2202C39.1634 76.8878 39.2841 77.6932 39.2841 78.6364C39.2841 79.5852 39.1648 80.3949 38.9261 81.0653C38.6875 81.733 38.3423 82.2429 37.8906 82.5952C37.4389 82.9446 36.892 83.1193 36.25 83.1193ZM36.25 82.1818C36.8864 82.1818 37.3807 81.875 37.733 81.2614C38.0852 80.6477 38.2614 79.7727 38.2614 78.6364C38.2614 77.8807 38.1804 77.2372 38.0185 76.706C37.8594 76.1747 37.6293 75.7699 37.3281 75.4915C37.0298 75.2131 36.6705 75.0739 36.25 75.0739C35.6193 75.0739 35.1264 75.3849 34.7713 76.0071C34.4162 76.6264 34.2386 77.5028 34.2386 78.6364C34.2386 79.392 34.3182 80.0341 34.4773 80.5625C34.6364 81.0909 34.8651 81.4929 35.1634 81.7685C35.4645 82.044 35.8267 82.1818 36.25 82.1818Z" fill="black"/>
<path d="M12.8232 99.2727V108H11.7663V100.381H11.7152L9.58452 101.795V100.722L11.7663 99.2727H12.8232ZM15.3331 108V107.233L18.2138 104.08C18.5518 103.71 18.8303 103.389 19.049 103.116C19.2678 102.841 19.4297 102.582 19.5348 102.341C19.6428 102.097 19.6967 101.841 19.6967 101.574C19.6967 101.267 19.6229 101.001 19.4751 100.777C19.3303 100.553 19.1314 100.379 18.8786 100.257C18.6257 100.135 18.3416 100.074 18.0263 100.074C17.6911 100.074 17.3984 100.143 17.1484 100.283C16.9013 100.419 16.7095 100.611 16.5732 100.858C16.4396 101.105 16.3729 101.395 16.3729 101.727H15.3672C15.3672 101.216 15.4851 100.767 15.7209 100.381C15.9567 99.9943 16.2777 99.6932 16.6839 99.4773C17.093 99.2614 17.5518 99.1534 18.0604 99.1534C18.5717 99.1534 19.0249 99.2614 19.4197 99.4773C19.8146 99.6932 20.1243 99.9844 20.3487 100.351C20.5732 100.717 20.6854 101.125 20.6854 101.574C20.6854 101.895 20.6271 102.209 20.5107 102.516C20.397 102.82 20.1982 103.159 19.9141 103.534C19.6328 103.906 19.2422 104.361 18.7422 104.898L16.782 106.994V107.062H20.8388V108H15.3331ZM23.3487 106.884C23.1385 106.884 22.9581 106.808 22.8075 106.658C22.657 106.507 22.5817 106.327 22.5817 106.116C22.5817 105.906 22.657 105.726 22.8075 105.575C22.9581 105.425 23.1385 105.349 23.3487 105.349C23.5589 105.349 23.7393 105.425 23.8899 105.575C24.0405 105.726 24.1158 105.906 24.1158 106.116C24.1158 106.256 24.0803 106.384 24.0092 106.5C23.9411 106.616 23.8487 106.71 23.7322 106.781C23.6186 106.849 23.4908 106.884 23.3487 106.884ZM23.3487 102.469C23.1385 102.469 22.9581 102.393 22.8075 102.243C22.657 102.092 22.5817 101.912 22.5817 101.702C22.5817 101.491 22.657 101.311 22.8075 101.161C22.9581 101.01 23.1385 100.935 23.3487 100.935C23.5589 100.935 23.7393 101.01 23.8899 101.161C24.0405 101.311 24.1158 101.491 24.1158 101.702C24.1158 101.841 24.0803 101.969 24.0092 102.085C23.9411 102.202 23.8487 102.295 23.7322 102.366C23.6186 102.435 23.4908 102.469 23.3487 102.469ZM28.75 108.119C28.108 108.119 27.5611 107.945 27.1094 107.595C26.6577 107.243 26.3125 106.733 26.0739 106.065C25.8352 105.395 25.7159 104.585 25.7159 103.636C25.7159 102.693 25.8352 101.888 26.0739 101.22C26.3153 100.55 26.6619 100.038 27.1136 99.6861C27.5682 99.331 28.1136 99.1534 28.75 99.1534C29.3864 99.1534 29.9304 99.331 30.3821 99.6861C30.8366 100.038 31.1832 100.55 31.4219 101.22C31.6634 101.888 31.7841 102.693 31.7841 103.636C31.7841 104.585 31.6648 105.395 31.4261 106.065C31.1875 106.733 30.8423 107.243 30.3906 107.595C29.9389 107.945 29.392 108.119 28.75 108.119ZM28.75 107.182C29.3864 107.182 29.8807 106.875 30.233 106.261C30.5852 105.648 30.7614 104.773 30.7614 103.636C30.7614 102.881 30.6804 102.237 30.5185 101.706C30.3594 101.175 30.1293 100.77 29.8281 100.491C29.5298 100.213 29.1705 100.074 28.75 100.074C28.1193 100.074 27.6264 100.385 27.2713 101.007C26.9162 101.626 26.7386 102.503 26.7386 103.636C26.7386 104.392 26.8182 105.034 26.9773 105.562C27.1364 106.091 27.3651 106.493 27.6634 106.768C27.9645 107.044 28.3267 107.182 28.75 107.182ZM36.25 108.119C35.608 108.119 35.0611 107.945 34.6094 107.595C34.1577 107.243 33.8125 106.733 33.5739 106.065C33.3352 105.395 33.2159 104.585 33.2159 103.636C33.2159 102.693 33.3352 101.888 33.5739 101.22C33.8153 100.55 34.1619 100.038 34.6136 99.6861C35.0682 99.331 35.6136 99.1534 36.25 99.1534C36.8864 99.1534 37.4304 99.331 37.8821 99.6861C38.3366 100.038 38.6832 100.55 38.9219 101.22C39.1634 101.888 39.2841 102.693 39.2841 103.636C39.2841 104.585 39.1648 105.395 38.9261 106.065C38.6875 106.733 38.3423 107.243 37.8906 107.595C37.4389 107.945 36.892 108.119 36.25 108.119ZM36.25 107.182C36.8864 107.182 37.3807 106.875 37.733 106.261C38.0852 105.648 38.2614 104.773 38.2614 103.636C38.2614 102.881 38.1804 102.237 38.0185 101.706C37.8594 101.175 37.6293 100.77 37.3281 100.491C37.0298 100.213 36.6705 100.074 36.25 100.074C35.6193 100.074 35.1264 100.385 34.7713 101.007C34.4162 101.626 34.2386 102.503 34.2386 103.636C34.2386 104.392 34.3182 105.034 34.4773 105.562C34.6364 106.091 34.8651 106.493 35.1634 106.768C35.4645 107.044 35.8267 107.182 36.25 107.182Z" fill="black"/>
<path d="M12.4482 124.273V133H11.3913V125.381H11.3402L9.20952 126.795V125.722L11.3913 124.273H12.4482ZM17.907 133.119C17.3445 133.119 16.843 133.023 16.4027 132.83C15.9652 132.636 15.6172 132.368 15.3587 132.024C15.103 131.678 14.9638 131.276 14.9411 130.818H16.0149C16.0376 131.099 16.1342 131.342 16.3047 131.547C16.4751 131.749 16.6982 131.905 16.9737 132.016C17.2493 132.126 17.5547 132.182 17.8899 132.182C18.2649 132.182 18.5973 132.116 18.8871 131.986C19.1768 131.855 19.4041 131.673 19.5689 131.44C19.7337 131.207 19.8161 130.938 19.8161 130.631C19.8161 130.31 19.7365 130.027 19.5774 129.783C19.4183 129.536 19.1854 129.342 18.8786 129.203C18.5717 129.064 18.1967 128.994 17.7536 128.994H17.0547V128.057H17.7536C18.1001 128.057 18.4041 127.994 18.6655 127.869C18.9297 127.744 19.1357 127.568 19.2834 127.341C19.4339 127.114 19.5092 126.847 19.5092 126.54C19.5092 126.244 19.4439 125.987 19.3132 125.768C19.1825 125.55 18.9979 125.379 18.7592 125.257C18.5234 125.135 18.245 125.074 17.924 125.074C17.6229 125.074 17.3388 125.129 17.0717 125.24C16.8075 125.348 16.5916 125.506 16.424 125.713C16.2564 125.918 16.1655 126.165 16.1513 126.455H15.1286C15.1456 125.997 15.2834 125.597 15.5419 125.253C15.8004 124.906 16.1385 124.636 16.5561 124.443C16.9766 124.25 17.4382 124.153 17.9411 124.153C18.4808 124.153 18.9439 124.263 19.3303 124.482C19.7166 124.697 20.0135 124.983 20.2209 125.338C20.4283 125.693 20.532 126.077 20.532 126.489C20.532 126.98 20.4027 127.399 20.1442 127.746C19.8885 128.092 19.5405 128.332 19.1001 128.466V128.534C19.6513 128.625 20.0817 128.859 20.3913 129.237C20.701 129.612 20.8558 130.077 20.8558 130.631C20.8558 131.105 20.7266 131.531 20.468 131.909C20.2124 132.284 19.8629 132.58 19.4197 132.795C18.9766 133.011 18.4723 133.119 17.907 133.119ZM23.3487 131.884C23.1385 131.884 22.9581 131.808 22.8075 131.658C22.657 131.507 22.5817 131.327 22.5817 131.116C22.5817 130.906 22.657 130.726 22.8075 130.575C22.9581 130.425 23.1385 130.349 23.3487 130.349C23.5589 130.349 23.7393 130.425 23.8899 130.575C24.0405 130.726 24.1158 130.906 24.1158 131.116C24.1158 131.256 24.0803 131.384 24.0092 131.5C23.9411 131.616 23.8487 131.71 23.7322 131.781C23.6186 131.849 23.4908 131.884 23.3487 131.884ZM23.3487 127.469C23.1385 127.469 22.9581 127.393 22.8075 127.243C22.657 127.092 22.5817 126.912 22.5817 126.702C22.5817 126.491 22.657 126.311 22.8075 126.161C22.9581 126.01 23.1385 125.935 23.3487 125.935C23.5589 125.935 23.7393 126.01 23.8899 126.161C24.0405 126.311 24.1158 126.491 24.1158 126.702C24.1158 126.841 24.0803 126.969 24.0092 127.085C23.9411 127.202 23.8487 127.295 23.7322 127.366C23.6186 127.435 23.4908 127.469 23.3487 127.469ZM28.75 133.119C28.108 133.119 27.5611 132.945 27.1094 132.595C26.6577 132.243 26.3125 131.733 26.0739 131.065C25.8352 130.395 25.7159 129.585 25.7159 128.636C25.7159 127.693 25.8352 126.888 26.0739 126.22C26.3153 125.55 26.6619 125.038 27.1136 124.686C27.5682 124.331 28.1136 124.153 28.75 124.153C29.3864 124.153 29.9304 124.331 30.3821 124.686C30.8366 125.038 31.1832 125.55 31.4219 126.22C31.6634 126.888 31.7841 127.693 31.7841 128.636C31.7841 129.585 31.6648 130.395 31.4261 131.065C31.1875 131.733 30.8423 132.243 30.3906 132.595C29.9389 132.945 29.392 133.119 28.75 133.119ZM28.75 132.182C29.3864 132.182 29.8807 131.875 30.233 131.261C30.5852 130.648 30.7614 129.773 30.7614 128.636C30.7614 127.881 30.6804 127.237 30.5185 126.706C30.3594 126.175 30.1293 125.77 29.8281 125.491C29.5298 125.213 29.1705 125.074 28.75 125.074C28.1193 125.074 27.6264 125.385 27.2713 126.007C26.9162 126.626 26.7386 127.503 26.7386 128.636C26.7386 129.392 26.8182 130.034 26.9773 130.562C27.1364 131.091 27.3651 131.493 27.6634 131.768C27.9645 132.044 28.3267 132.182 28.75 132.182ZM36.25 133.119C35.608 133.119 35.0611 132.945 34.6094 132.595C34.1577 132.243 33.8125 131.733 33.5739 131.065C33.3352 130.395 33.2159 129.585 33.2159 128.636C33.2159 127.693 33.3352 126.888 33.5739 126.22C33.8153 125.55 34.1619 125.038 34.6136 124.686C35.0682 124.331 35.6136 124.153 36.25 124.153C36.8864 124.153 37.4304 124.331 37.8821 124.686C38.3366 125.038 38.6832 125.55 38.9219 126.22C39.1634 126.888 39.2841 127.693 39.2841 128.636C39.2841 129.585 39.1648 130.395 38.9261 131.065C38.6875 131.733 38.3423 132.243 37.8906 132.595C37.4389 132.945 36.892 133.119 36.25 133.119ZM36.25 132.182C36.8864 132.182 37.3807 131.875 37.733 131.261C38.0852 130.648 38.2614 129.773 38.2614 128.636C38.2614 127.881 38.1804 127.237 38.0185 126.706C37.8594 126.175 37.6293 125.77 37.3281 125.491C37.0298 125.213 36.6705 125.074 36.25 125.074C35.6193 125.074 35.1264 125.385 34.7713 126.007C34.4162 126.626 34.2386 127.503 34.2386 128.636C34.2386 129.392 34.3182 130.034 34.4773 130.562C34.6364 131.091 34.8651 131.493 35.1634 131.768C35.4645 132.044 35.8267 132.182 36.25 132.182Z" fill="black"/>
<path d="M14.3896 149.273V158H13.3327V150.381H13.2816L11.1509 151.795V150.722L13.3327 149.273H14.3896ZM16.695 156.21V155.341L20.5302 149.273H21.1609V150.619H20.7347L17.837 155.205V155.273H23.0018V156.21H16.695ZM20.8029 158V155.946V155.541V149.273H21.8086V158H20.8029ZM25.3487 156.884C25.1385 156.884 24.9581 156.808 24.8075 156.658C24.657 156.507 24.5817 156.327 24.5817 156.116C24.5817 155.906 24.657 155.726 24.8075 155.575C24.9581 155.425 25.1385 155.349 25.3487 155.349C25.5589 155.349 25.7393 155.425 25.8899 155.575C26.0405 155.726 26.1158 155.906 26.1158 156.116C26.1158 156.256 26.0803 156.384 26.0092 156.5C25.9411 156.616 25.8487 156.71 25.7322 156.781C25.6186 156.849 25.4908 156.884 25.3487 156.884ZM25.3487 152.469C25.1385 152.469 24.9581 152.393 24.8075 152.243C24.657 152.092 24.5817 151.912 24.5817 151.702C24.5817 151.491 24.657 151.311 24.8075 151.161C24.9581 151.01 25.1385 150.935 25.3487 150.935C25.5589 150.935 25.7393 151.01 25.8899 151.161C26.0405 151.311 26.1158 151.491 26.1158 151.702C26.1158 151.841 26.0803 151.969 26.0092 152.085C25.9411 152.202 25.8487 152.295 25.7322 152.366C25.6186 152.435 25.4908 152.469 25.3487 152.469ZM30.75 158.119C30.108 158.119 29.5611 157.945 29.1094 157.595C28.6577 157.243 28.3125 156.733 28.0739 156.065C27.8352 155.395 27.7159 154.585 27.7159 153.636C27.7159 152.693 27.8352 151.888 28.0739 151.22C28.3153 150.55 28.6619 150.038 29.1136 149.686C29.5682 149.331 30.1136 149.153 30.75 149.153C31.3864 149.153 31.9304 149.331 32.3821 149.686C32.8366 150.038 33.1832 150.55 33.4219 151.22C33.6634 151.888 33.7841 152.693 33.7841 153.636C33.7841 154.585 33.6648 155.395 33.4261 156.065C33.1875 156.733 32.8423 157.243 32.3906 157.595C31.9389 157.945 31.392 158.119 30.75 158.119ZM30.75 157.182C31.3864 157.182 31.8807 156.875 32.233 156.261C32.5852 155.648 32.7614 154.773 32.7614 153.636C32.7614 152.881 32.6804 152.237 32.5185 151.706C32.3594 151.175 32.1293 150.77 31.8281 150.491C31.5298 150.213 31.1705 150.074 30.75 150.074C30.1193 150.074 29.6264 150.385 29.2713 151.007C28.9162 151.626 28.7386 152.503 28.7386 153.636C28.7386 154.392 28.8182 155.034 28.9773 155.562C29.1364 156.091 29.3651 156.493 29.6634 156.768C29.9645 157.044 30.3267 157.182 30.75 157.182ZM38.25 158.119C37.608 158.119 37.0611 157.945 36.6094 157.595C36.1577 157.243 35.8125 156.733 35.5739 156.065C35.3352 155.395 35.2159 154.585 35.2159 153.636C35.2159 152.693 35.3352 151.888 35.5739 151.22C35.8153 150.55 36.1619 150.038 36.6136 149.686C37.0682 149.331 37.6136 149.153 38.25 149.153C38.8864 149.153 39.4304 149.331 39.8821 149.686C40.3366 150.038 40.6832 150.55 40.9219 151.22C41.1634 151.888 41.2841 152.693 41.2841 153.636C41.2841 154.585 41.1648 155.395 40.9261 156.065C40.6875 156.733 40.3423 157.243 39.8906 157.595C39.4389 157.945 38.892 158.119 38.25 158.119ZM38.25 157.182C38.8864 157.182 39.3807 156.875 39.733 156.261C40.0852 155.648 40.2614 154.773 40.2614 153.636C40.2614 152.881 40.1804 152.237 40.0185 151.706C39.8594 151.175 39.6293 150.77 39.3281 150.491C39.0298 150.213 38.6705 150.074 38.25 150.074C37.6193 150.074 37.1264 150.385 36.7713 151.007C36.4162 151.626 36.2386 152.503 36.2386 153.636C36.2386 154.392 36.3182 155.034 36.4773 155.562C36.6364 156.091 36.8651 156.493 37.1634 156.768C37.4645 157.044 37.8267 157.182 38.25 157.182Z" fill="black"/>
<path d="M14.788 174.273V183H13.7312V175.381H13.68L11.5494 176.795V175.722L13.7312 174.273H14.788ZM20.0252 183.119C19.5252 183.119 19.0749 183.02 18.6744 182.821C18.2738 182.622 17.9528 182.349 17.7113 182.003C17.4698 181.656 17.3377 181.261 17.315 180.818H18.3377C18.3775 181.213 18.5565 181.54 18.8746 181.798C19.1957 182.054 19.5792 182.182 20.0252 182.182C20.3832 182.182 20.7013 182.098 20.9798 181.93C21.261 181.763 21.4812 181.533 21.6403 181.24C21.8022 180.945 21.8832 180.611 21.8832 180.239C21.8832 179.858 21.7994 179.518 21.6317 179.22C21.467 178.919 21.2397 178.682 20.9499 178.509C20.6602 178.335 20.3292 178.247 19.957 178.244C19.69 178.241 19.4158 178.283 19.1346 178.368C18.8533 178.45 18.6218 178.557 18.44 178.688L17.4513 178.568L17.9798 174.273H22.5138V175.21H18.8661L18.5593 177.784H18.6104C18.7894 177.642 19.0138 177.524 19.2837 177.43C19.5536 177.337 19.8349 177.29 20.1275 177.29C20.6616 177.29 21.1374 177.418 21.555 177.673C21.9755 177.926 22.305 178.273 22.5437 178.713C22.7852 179.153 22.9059 179.656 22.9059 180.222C22.9059 180.778 22.7809 181.276 22.5309 181.713C22.2837 182.148 21.9428 182.491 21.5082 182.744C21.0735 182.994 20.5792 183.119 20.0252 183.119ZM25.3487 181.884C25.1385 181.884 24.9581 181.808 24.8075 181.658C24.657 181.507 24.5817 181.327 24.5817 181.116C24.5817 180.906 24.657 180.726 24.8075 180.575C24.9581 180.425 25.1385 180.349 25.3487 180.349C25.5589 180.349 25.7393 180.425 25.8899 180.575C26.0405 180.726 26.1158 180.906 26.1158 181.116C26.1158 181.256 26.0803 181.384 26.0092 181.5C25.9411 181.616 25.8487 181.71 25.7322 181.781C25.6186 181.849 25.4908 181.884 25.3487 181.884ZM25.3487 177.469C25.1385 177.469 24.9581 177.393 24.8075 177.243C24.657 177.092 24.5817 176.912 24.5817 176.702C24.5817 176.491 24.657 176.311 24.8075 176.161C24.9581 176.01 25.1385 175.935 25.3487 175.935C25.5589 175.935 25.7393 176.01 25.8899 176.161C26.0405 176.311 26.1158 176.491 26.1158 176.702C26.1158 176.841 26.0803 176.969 26.0092 177.085C25.9411 177.202 25.8487 177.295 25.7322 177.366C25.6186 177.435 25.4908 177.469 25.3487 177.469ZM30.75 183.119C30.108 183.119 29.5611 182.945 29.1094 182.595C28.6577 182.243 28.3125 181.733 28.0739 181.065C27.8352 180.395 27.7159 179.585 27.7159 178.636C27.7159 177.693 27.8352 176.888 28.0739 176.22C28.3153 175.55 28.6619 175.038 29.1136 174.686C29.5682 174.331 30.1136 174.153 30.75 174.153C31.3864 174.153 31.9304 174.331 32.3821 174.686C32.8366 175.038 33.1832 175.55 33.4219 176.22C33.6634 176.888 33.7841 177.693 33.7841 178.636C33.7841 179.585 33.6648 180.395 33.4261 181.065C33.1875 181.733 32.8423 182.243 32.3906 182.595C31.9389 182.945 31.392 183.119 30.75 183.119ZM30.75 182.182C31.3864 182.182 31.8807 181.875 32.233 181.261C32.5852 180.648 32.7614 179.773 32.7614 178.636C32.7614 177.881 32.6804 177.237 32.5185 176.706C32.3594 176.175 32.1293 175.77 31.8281 175.491C31.5298 175.213 31.1705 175.074 30.75 175.074C30.1193 175.074 29.6264 175.385 29.2713 176.007C28.9162 176.626 28.7386 177.503 28.7386 178.636C28.7386 179.392 28.8182 180.034 28.9773 180.562C29.1364 181.091 29.3651 181.493 29.6634 181.768C29.9645 182.044 30.3267 182.182 30.75 182.182ZM38.25 183.119C37.608 183.119 37.0611 182.945 36.6094 182.595C36.1577 182.243 35.8125 181.733 35.5739 181.065C35.3352 180.395 35.2159 179.585 35.2159 178.636C35.2159 177.693 35.3352 176.888 35.5739 176.22C35.8153 175.55 36.1619 175.038 36.6136 174.686C37.0682 174.331 37.6136 174.153 38.25 174.153C38.8864 174.153 39.4304 174.331 39.8821 174.686C40.3366 175.038 40.6832 175.55 40.9219 176.22C41.1634 176.888 41.2841 177.693 41.2841 178.636C41.2841 179.585 41.1648 180.395 40.9261 181.065C40.6875 181.733 40.3423 182.243 39.8906 182.595C39.4389 182.945 38.892 183.119 38.25 183.119ZM38.25 182.182C38.8864 182.182 39.3807 181.875 39.733 181.261C40.0852 180.648 40.2614 179.773 40.2614 178.636C40.2614 177.881 40.1804 177.237 40.0185 176.706C39.8594 176.175 39.6293 175.77 39.3281 175.491C39.0298 175.213 38.6705 175.074 38.25 175.074C37.6193 175.074 37.1264 175.385 36.7713 176.007C36.4162 176.626 36.2386 177.503 36.2386 178.636C36.2386 179.392 36.3182 180.034 36.4773 180.562C36.6364 181.091 36.8651 181.493 37.1634 181.768C37.4645 182.044 37.8267 182.182 38.25 182.182Z" fill="black"/>
<path d="M14.6005 199.273V208H13.5437V200.381H13.4925L11.3619 201.795V200.722L13.5437 199.273H14.6005ZM20.0082 208.119C19.6502 208.114 19.2923 208.045 18.9343 207.915C18.5763 207.784 18.2496 207.564 17.9542 207.254C17.6587 206.942 17.4215 206.52 17.2425 205.989C17.0636 205.455 16.9741 204.784 16.9741 203.977C16.9741 203.205 17.0465 202.52 17.1914 201.923C17.3363 201.324 17.5465 200.82 17.8221 200.411C18.0977 199.999 18.43 199.686 18.8192 199.473C19.2113 199.26 19.6531 199.153 20.1445 199.153C20.6332 199.153 21.0678 199.251 21.4485 199.447C21.832 199.641 22.1445 199.911 22.386 200.257C22.6275 200.604 22.7837 201.003 22.8548 201.455H21.815C21.7184 201.062 21.5309 200.737 21.2525 200.479C20.9741 200.22 20.6048 200.091 20.1445 200.091C19.4684 200.091 18.9357 200.385 18.5465 200.973C18.1602 201.561 17.9656 202.386 17.9627 203.449H18.0309C18.19 203.207 18.3789 203.001 18.5977 202.831C18.8192 202.658 19.0636 202.524 19.3306 202.43C19.5977 202.337 19.8803 202.29 20.1786 202.29C20.6786 202.29 21.136 202.415 21.5508 202.665C21.9656 202.912 22.2979 203.254 22.5479 203.692C22.7979 204.126 22.9229 204.625 22.9229 205.188C22.9229 205.727 22.8022 206.222 22.5607 206.67C22.3192 207.116 21.9798 207.472 21.5423 207.736C21.1076 207.997 20.5962 208.125 20.0082 208.119ZM20.0082 207.182C20.3661 207.182 20.6871 207.092 20.9712 206.913C21.2582 206.734 21.484 206.494 21.6488 206.193C21.8164 205.892 21.9002 205.557 21.9002 205.188C21.9002 204.827 21.8192 204.499 21.6573 204.203C21.4982 203.905 21.2781 203.668 20.9968 203.491C20.7184 203.315 20.4002 203.227 20.0423 203.227C19.7724 203.227 19.521 203.281 19.288 203.389C19.055 203.494 18.8505 203.639 18.6744 203.824C18.5011 204.009 18.3647 204.22 18.2653 204.459C18.1658 204.695 18.1161 204.943 18.1161 205.205C18.1161 205.551 18.1971 205.875 18.359 206.176C18.5238 206.477 18.7482 206.72 19.0323 206.905C19.3192 207.089 19.6445 207.182 20.0082 207.182ZM25.3487 206.884C25.1385 206.884 24.9581 206.808 24.8075 206.658C24.657 206.507 24.5817 206.327 24.5817 206.116C24.5817 205.906 24.657 205.726 24.8075 205.575C24.9581 205.425 25.1385 205.349 25.3487 205.349C25.5589 205.349 25.7393 205.425 25.8899 205.575C26.0405 205.726 26.1158 205.906 26.1158 206.116C26.1158 206.256 26.0803 206.384 26.0092 206.5C25.9411 206.616 25.8487 206.71 25.7322 206.781C25.6186 206.849 25.4908 206.884 25.3487 206.884ZM25.3487 202.469C25.1385 202.469 24.9581 202.393 24.8075 202.243C24.657 202.092 24.5817 201.912 24.5817 201.702C24.5817 201.491 24.657 201.311 24.8075 201.161C24.9581 201.01 25.1385 200.935 25.3487 200.935C25.5589 200.935 25.7393 201.01 25.8899 201.161C26.0405 201.311 26.1158 201.491 26.1158 201.702C26.1158 201.841 26.0803 201.969 26.0092 202.085C25.9411 202.202 25.8487 202.295 25.7322 202.366C25.6186 202.435 25.4908 202.469 25.3487 202.469ZM30.75 208.119C30.108 208.119 29.5611 207.945 29.1094 207.595C28.6577 207.243 28.3125 206.733 28.0739 206.065C27.8352 205.395 27.7159 204.585 27.7159 203.636C27.7159 202.693 27.8352 201.888 28.0739 201.22C28.3153 200.55 28.6619 200.038 29.1136 199.686C29.5682 199.331 30.1136 199.153 30.75 199.153C31.3864 199.153 31.9304 199.331 32.3821 199.686C32.8366 200.038 33.1832 200.55 33.4219 201.22C33.6634 201.888 33.7841 202.693 33.7841 203.636C33.7841 204.585 33.6648 205.395 33.4261 206.065C33.1875 206.733 32.8423 207.243 32.3906 207.595C31.9389 207.945 31.392 208.119 30.75 208.119ZM30.75 207.182C31.3864 207.182 31.8807 206.875 32.233 206.261C32.5852 205.648 32.7614 204.773 32.7614 203.636C32.7614 202.881 32.6804 202.237 32.5185 201.706C32.3594 201.175 32.1293 200.77 31.8281 200.491C31.5298 200.213 31.1705 200.074 30.75 200.074C30.1193 200.074 29.6264 200.385 29.2713 201.007C28.9162 201.626 28.7386 202.503 28.7386 203.636C28.7386 204.392 28.8182 205.034 28.9773 205.562C29.1364 206.091 29.3651 206.493 29.6634 206.768C29.9645 207.044 30.3267 207.182 30.75 207.182ZM38.25 208.119C37.608 208.119 37.0611 207.945 36.6094 207.595C36.1577 207.243 35.8125 206.733 35.5739 206.065C35.3352 205.395 35.2159 204.585 35.2159 203.636C35.2159 202.693 35.3352 201.888 35.5739 201.22C35.8153 200.55 36.1619 200.038 36.6136 199.686C37.0682 199.331 37.6136 199.153 38.25 199.153C38.8864 199.153 39.4304 199.331 39.8821 199.686C40.3366 200.038 40.6832 200.55 40.9219 201.22C41.1634 201.888 41.2841 202.693 41.2841 203.636C41.2841 204.585 41.1648 205.395 40.9261 206.065C40.6875 206.733 40.3423 207.243 39.8906 207.595C39.4389 207.945 38.892 208.119 38.25 208.119ZM38.25 207.182C38.8864 207.182 39.3807 206.875 39.733 206.261C40.0852 205.648 40.2614 204.773 40.2614 203.636C40.2614 202.881 40.1804 202.237 40.0185 201.706C39.8594 201.175 39.6293 200.77 39.3281 200.491C39.0298 200.213 38.6705 200.074 38.25 200.074C37.6193 200.074 37.1264 200.385 36.7713 201.007C36.4162 201.626 36.2386 202.503 36.2386 203.636C36.2386 204.392 36.3182 205.034 36.4773 205.562C36.6364 206.091 36.8651 206.493 37.1634 206.768C37.4645 207.044 37.8267 207.182 38.25 207.182Z" fill="black"/>
<path d="M15.6435 224.273V233H14.5866V225.381H14.5355L12.4048 226.795V225.722L14.5866 224.273H15.6435ZM18.4261 233L22.3295 225.278V225.21H17.8295V224.273H23.4205V225.261L19.5341 233H18.4261ZM25.3487 231.884C25.1385 231.884 24.9581 231.808 24.8075 231.658C24.657 231.507 24.5817 231.327 24.5817 231.116C24.5817 230.906 24.657 230.726 24.8075 230.575C24.9581 230.425 25.1385 230.349 25.3487 230.349C25.5589 230.349 25.7393 230.425 25.8899 230.575C26.0405 230.726 26.1158 230.906 26.1158 231.116C26.1158 231.256 26.0803 231.384 26.0092 231.5C25.9411 231.616 25.8487 231.71 25.7322 231.781C25.6186 231.849 25.4908 231.884 25.3487 231.884ZM25.3487 227.469C25.1385 227.469 24.9581 227.393 24.8075 227.243C24.657 227.092 24.5817 226.912 24.5817 226.702C24.5817 226.491 24.657 226.311 24.8075 226.161C24.9581 226.01 25.1385 225.935 25.3487 225.935C25.5589 225.935 25.7393 226.01 25.8899 226.161C26.0405 226.311 26.1158 226.491 26.1158 226.702C26.1158 226.841 26.0803 226.969 26.0092 227.085C25.9411 227.202 25.8487 227.295 25.7322 227.366C25.6186 227.435 25.4908 227.469 25.3487 227.469ZM30.75 233.119C30.108 233.119 29.5611 232.945 29.1094 232.595C28.6577 232.243 28.3125 231.733 28.0739 231.065C27.8352 230.395 27.7159 229.585 27.7159 228.636C27.7159 227.693 27.8352 226.888 28.0739 226.22C28.3153 225.55 28.6619 225.038 29.1136 224.686C29.5682 224.331 30.1136 224.153 30.75 224.153C31.3864 224.153 31.9304 224.331 32.3821 224.686C32.8366 225.038 33.1832 225.55 33.4219 226.22C33.6634 226.888 33.7841 227.693 33.7841 228.636C33.7841 229.585 33.6648 230.395 33.4261 231.065C33.1875 231.733 32.8423 232.243 32.3906 232.595C31.9389 232.945 31.392 233.119 30.75 233.119ZM30.75 232.182C31.3864 232.182 31.8807 231.875 32.233 231.261C32.5852 230.648 32.7614 229.773 32.7614 228.636C32.7614 227.881 32.6804 227.237 32.5185 226.706C32.3594 226.175 32.1293 225.77 31.8281 225.491C31.5298 225.213 31.1705 225.074 30.75 225.074C30.1193 225.074 29.6264 225.385 29.2713 226.007C28.9162 226.626 28.7386 227.503 28.7386 228.636C28.7386 229.392 28.8182 230.034 28.9773 230.562C29.1364 231.091 29.3651 231.493 29.6634 231.768C29.9645 232.044 30.3267 232.182 30.75 232.182ZM38.25 233.119C37.608 233.119 37.0611 232.945 36.6094 232.595C36.1577 232.243 35.8125 231.733 35.5739 231.065C35.3352 230.395 35.2159 229.585 35.2159 228.636C35.2159 227.693 35.3352 226.888 35.5739 226.22C35.8153 225.55 36.1619 225.038 36.6136 224.686C37.0682 224.331 37.6136 224.153 38.25 224.153C38.8864 224.153 39.4304 224.331 39.8821 224.686C40.3366 225.038 40.6832 225.55 40.9219 226.22C41.1634 226.888 41.2841 227.693 41.2841 228.636C41.2841 229.585 41.1648 230.395 40.9261 231.065C40.6875 231.733 40.3423 232.243 39.8906 232.595C39.4389 232.945 38.892 233.119 38.25 233.119ZM38.25 232.182C38.8864 232.182 39.3807 231.875 39.733 231.261C40.0852 230.648 40.2614 229.773 40.2614 228.636C40.2614 227.881 40.1804 227.237 40.0185 226.706C39.8594 226.175 39.6293 225.77 39.3281 225.491C39.0298 225.213 38.6705 225.074 38.25 225.074C37.6193 225.074 37.1264 225.385 36.7713 226.007C36.4162 226.626 36.2386 227.503 36.2386 228.636C36.2386 229.392 36.3182 230.034 36.4773 230.562C36.6364 231.091 36.8651 231.493 37.1634 231.768C37.4645 232.044 37.8267 232.182 38.25 232.182Z" fill="black"/>
<path d="M17.8888 24.1534C18.2468 24.1562 18.6048 24.2244 18.9627 24.358C19.3207 24.4915 19.6474 24.7131 19.9428 25.0227C20.2383 25.3295 20.4755 25.7486 20.6545 26.2798C20.8335 26.8111 20.9229 27.4773 20.9229 28.2784C20.9229 29.054 20.8491 29.7429 20.7013 30.3452C20.5565 30.9446 20.3462 31.4503 20.0707 31.8622C19.7979 32.2741 19.4656 32.5866 19.0735 32.7997C18.6843 33.0128 18.244 33.1193 17.7525 33.1193C17.2638 33.1193 16.8278 33.0227 16.4442 32.8295C16.0636 32.6335 15.7511 32.3622 15.5067 32.0156C15.2653 31.6662 15.1104 31.2614 15.0423 30.8011H16.082C16.1758 31.2017 16.3619 31.5327 16.6403 31.794C16.9215 32.0526 17.2923 32.1818 17.7525 32.1818C18.4258 32.1818 18.957 31.8878 19.3462 31.2997C19.7383 30.7116 19.9343 29.8807 19.9343 28.8068H19.8661C19.707 29.0455 19.5181 29.2514 19.2994 29.4247C19.0806 29.598 18.8377 29.7315 18.5707 29.8253C18.3036 29.919 18.0195 29.9659 17.7184 29.9659C17.2184 29.9659 16.7596 29.8423 16.342 29.5952C15.9272 29.3452 15.5948 29.0028 15.3448 28.5682C15.0977 28.1307 14.9741 27.6307 14.9741 27.0682C14.9741 26.5341 15.0934 26.0455 15.332 25.6023C15.5735 25.1562 15.9116 24.8011 16.3462 24.5369C16.7837 24.2727 17.2979 24.1449 17.8888 24.1534ZM17.8888 25.0909C17.5309 25.0909 17.2085 25.1804 16.9215 25.3594C16.6374 25.5355 16.4116 25.7741 16.244 26.0753C16.0792 26.3736 15.9968 26.7045 15.9968 27.0682C15.9968 27.4318 16.0763 27.7628 16.2354 28.0611C16.3974 28.3565 16.6175 28.5923 16.896 28.7685C17.1772 28.9418 17.4968 29.0284 17.8548 29.0284C18.1246 29.0284 18.3761 28.9759 18.609 28.8707C18.842 28.7628 19.0451 28.6165 19.2184 28.4318C19.3945 28.2443 19.5323 28.0327 19.6317 27.7969C19.7312 27.5582 19.7809 27.3097 19.7809 27.0511C19.7809 26.7102 19.6985 26.3906 19.5337 26.0923C19.3718 25.794 19.1474 25.5526 18.8604 25.3679C18.5763 25.1832 18.2525 25.0909 17.8888 25.0909ZM23.3487 31.8835C23.1385 31.8835 22.9581 31.8082 22.8075 31.6577C22.657 31.5071 22.5817 31.3267 22.5817 31.1165C22.5817 30.9062 22.657 30.7259 22.8075 30.5753C22.9581 30.4247 23.1385 30.3494 23.3487 30.3494C23.5589 30.3494 23.7393 30.4247 23.8899 30.5753C24.0405 30.7259 24.1158 30.9062 24.1158 31.1165C24.1158 31.2557 24.0803 31.3835 24.0092 31.5C23.9411 31.6165 23.8487 31.7102 23.7322 31.7812C23.6186 31.8494 23.4908 31.8835 23.3487 31.8835ZM23.3487 27.4688C23.1385 27.4688 22.9581 27.3935 22.8075 27.2429C22.657 27.0923 22.5817 26.9119 22.5817 26.7017C22.5817 26.4915 22.657 26.3111 22.8075 26.1605C22.9581 26.0099 23.1385 25.9347 23.3487 25.9347C23.5589 25.9347 23.7393 26.0099 23.8899 26.1605C24.0405 26.3111 24.1158 26.4915 24.1158 26.7017C24.1158 26.8409 24.0803 26.9688 24.0092 27.0852C23.9411 27.2017 23.8487 27.2955 23.7322 27.3665C23.6186 27.4347 23.4908 27.4688 23.3487 27.4688ZM28.75 33.1193C28.108 33.1193 27.5611 32.9446 27.1094 32.5952C26.6577 32.2429 26.3125 31.733 26.0739 31.0653C25.8352 30.3949 25.7159 29.5852 25.7159 28.6364C25.7159 27.6932 25.8352 26.8878 26.0739 26.2202C26.3153 25.5497 26.6619 25.0384 27.1136 24.6861C27.5682 24.331 28.1136 24.1534 28.75 24.1534C29.3864 24.1534 29.9304 24.331 30.3821 24.6861C30.8366 25.0384 31.1832 25.5497 31.4219 26.2202C31.6634 26.8878 31.7841 27.6932 31.7841 28.6364C31.7841 29.5852 31.6648 30.3949 31.4261 31.0653C31.1875 31.733 30.8423 32.2429 30.3906 32.5952C29.9389 32.9446 29.392 33.1193 28.75 33.1193ZM28.75 32.1818C29.3864 32.1818 29.8807 31.875 30.233 31.2614C30.5852 30.6477 30.7614 29.7727 30.7614 28.6364C30.7614 27.8807 30.6804 27.2372 30.5185 26.706C30.3594 26.1747 30.1293 25.7699 29.8281 25.4915C29.5298 25.2131 29.1705 25.0739 28.75 25.0739C28.1193 25.0739 27.6264 25.3849 27.2713 26.0071C26.9162 26.6264 26.7386 27.5028 26.7386 28.6364C26.7386 29.392 26.8182 30.0341 26.9773 30.5625C27.1364 31.0909 27.3651 31.4929 27.6634 31.7685C27.9645 32.044 28.3267 32.1818 28.75 32.1818ZM36.25 33.1193C35.608 33.1193 35.0611 32.9446 34.6094 32.5952C34.1577 32.2429 33.8125 31.733 33.5739 31.0653C33.3352 30.3949 33.2159 29.5852 33.2159 28.6364C33.2159 27.6932 33.3352 26.8878 33.5739 26.2202C33.8153 25.5497 34.1619 25.0384 34.6136 24.6861C35.0682 24.331 35.6136 24.1534 36.25 24.1534C36.8864 24.1534 37.4304 24.331 37.8821 24.6861C38.3366 25.0384 38.6832 25.5497 38.9219 26.2202C39.1634 26.8878 39.2841 27.6932 39.2841 28.6364C39.2841 29.5852 39.1648 30.3949 38.9261 31.0653C38.6875 31.733 38.3423 32.2429 37.8906 32.5952C37.4389 32.9446 36.892 33.1193 36.25 33.1193ZM36.25 32.1818C36.8864 32.1818 37.3807 31.875 37.733 31.2614C38.0852 30.6477 38.2614 29.7727 38.2614 28.6364C38.2614 27.8807 38.1804 27.2372 38.0185 26.706C37.8594 26.1747 37.6293 25.7699 37.3281 25.4915C37.0298 25.2131 36.6705 25.0739 36.25 25.0739C35.6193 25.0739 35.1264 25.3849 34.7713 26.0071C34.4162 26.6264 34.2386 27.5028 34.2386 28.6364C34.2386 29.392 34.3182 30.0341 34.4773 30.5625C34.6364 31.0909 34.8651 31.4929 35.1634 31.7685C35.4645 32.044 35.8267 32.1818 36.25 32.1818Z" fill="black"/>
<path d="M61.2013 3.27273H62.4627L65.4286 10.517H65.5309L68.4968 3.27273H69.7582V12H68.7695V5.36932H68.6843L65.957 12H65.0025L62.2752 5.36932H62.19V12H61.2013V3.27273ZM74.3999 12.1364C73.8089 12.1364 73.2905 11.9957 72.8445 11.7145C72.4013 11.4332 72.0547 11.0398 71.8047 10.5341C71.5575 10.0284 71.4339 9.4375 71.4339 8.76136C71.4339 8.07955 71.5575 7.48437 71.8047 6.97585C72.0547 6.46733 72.4013 6.07244 72.8445 5.79119C73.2905 5.50994 73.8089 5.36932 74.3999 5.36932C74.9908 5.36932 75.5078 5.50994 75.951 5.79119C76.397 6.07244 76.7436 6.46733 76.9908 6.97585C77.2408 7.48437 77.3658 8.07955 77.3658 8.76136C77.3658 9.4375 77.2408 10.0284 76.9908 10.5341C76.7436 11.0398 76.397 11.4332 75.951 11.7145C75.5078 11.9957 74.9908 12.1364 74.3999 12.1364ZM74.3999 11.233C74.8487 11.233 75.218 11.1179 75.5078 10.8878C75.7976 10.6577 76.0121 10.3551 76.1513 9.98011C76.2905 9.60511 76.3601 9.19886 76.3601 8.76136C76.3601 8.32386 76.2905 7.91619 76.1513 7.53835C76.0121 7.16051 75.7976 6.85511 75.5078 6.62216C75.218 6.3892 74.8487 6.27273 74.3999 6.27273C73.951 6.27273 73.5817 6.3892 73.2919 6.62216C73.0021 6.85511 72.7876 7.16051 72.6484 7.53835C72.5092 7.91619 72.4396 8.32386 72.4396 8.76136C72.4396 9.19886 72.5092 9.60511 72.6484 9.98011C72.7876 10.3551 73.0021 10.6577 73.2919 10.8878C73.5817 11.1179 73.951 11.233 74.3999 11.233ZM79.9066 8.0625V12H78.9009V5.45455H79.8725V6.47727H79.9577C80.1112 6.14489 80.3441 5.87784 80.6566 5.67614C80.9691 5.47159 81.3725 5.36932 81.8668 5.36932C82.31 5.36932 82.6978 5.46023 83.0302 5.64205C83.3626 5.82102 83.6211 6.09375 83.8058 6.46023C83.9904 6.82386 84.0827 7.28409 84.0827 7.84091V12H83.0771V7.90909C83.0771 7.39489 82.9435 6.99432 82.6765 6.70739C82.4094 6.41761 82.043 6.27273 81.5771 6.27273C81.256 6.27273 80.9691 6.34233 80.7163 6.48153C80.4663 6.62074 80.2688 6.82386 80.1239 7.09091C79.979 7.35795 79.9066 7.68182 79.9066 8.0625Z" fill="black"/>
<path d="M109.814 4.21023V3.27273H116.359V4.21023H113.615V12H112.558V4.21023H109.814ZM121.088 9.32386V5.45455H122.094V12H121.088V10.892H121.02C120.867 11.2244 120.628 11.5071 120.304 11.7401C119.98 11.9702 119.571 12.0852 119.077 12.0852C118.668 12.0852 118.304 11.9957 117.986 11.8168C117.668 11.6349 117.418 11.3622 117.236 10.9986C117.054 10.6321 116.963 10.1705 116.963 9.61364V5.45455H117.969V9.54545C117.969 10.0227 118.103 10.4034 118.37 10.6875C118.64 10.9716 118.983 11.1136 119.401 11.1136C119.651 11.1136 119.905 11.0497 120.164 10.9219C120.425 10.794 120.644 10.598 120.82 10.3338C120.999 10.0696 121.088 9.73295 121.088 9.32386ZM126.68 12.1364C126.05 12.1364 125.506 11.9972 125.048 11.7188C124.594 11.4375 124.243 11.0455 123.996 10.5426C123.751 10.0369 123.629 9.44886 123.629 8.77841C123.629 8.10795 123.751 7.51705 123.996 7.00568C124.243 6.49148 124.587 6.09091 125.027 5.80398C125.47 5.5142 125.987 5.36932 126.578 5.36932C126.919 5.36932 127.256 5.42614 127.588 5.53977C127.92 5.65341 128.223 5.83807 128.496 6.09375C128.768 6.34659 128.986 6.68182 129.148 7.09943C129.31 7.51705 129.391 8.03125 129.391 8.64205V9.06818H124.345V8.19886H128.368C128.368 7.82955 128.294 7.5 128.146 7.21023C128.001 6.92045 127.794 6.69176 127.524 6.52415C127.257 6.35653 126.942 6.27273 126.578 6.27273C126.178 6.27273 125.831 6.37216 125.538 6.57102C125.249 6.76705 125.026 7.02273 124.869 7.33807C124.713 7.65341 124.635 7.99148 124.635 8.35227V8.93182C124.635 9.42614 124.72 9.84517 124.891 10.1889C125.064 10.5298 125.304 10.7898 125.611 10.9688C125.918 11.1449 126.274 11.233 126.68 11.233C126.945 11.233 127.183 11.196 127.396 11.1222C127.612 11.0455 127.798 10.9318 127.955 10.7812C128.111 10.6278 128.232 10.4375 128.317 10.2102L129.288 10.483C129.186 10.8125 129.014 11.1023 128.773 11.3523C128.531 11.5994 128.233 11.7926 127.878 11.9318C127.523 12.0682 127.124 12.1364 126.68 12.1364Z" fill="black"/>
<path d="M155.423 12L153.037 3.27273H154.111L155.935 10.3807H156.02L157.878 3.27273H159.071L160.929 10.3807H161.014L162.838 3.27273H163.912L161.526 12H160.435L158.509 5.04545H158.44L156.514 12H155.423ZM167.227 12.1364C166.597 12.1364 166.053 11.9972 165.595 11.7188C165.141 11.4375 164.79 11.0455 164.543 10.5426C164.298 10.0369 164.176 9.44886 164.176 8.77841C164.176 8.10795 164.298 7.51705 164.543 7.00568C164.79 6.49148 165.134 6.09091 165.574 5.80398C166.017 5.5142 166.534 5.36932 167.125 5.36932C167.466 5.36932 167.803 5.42614 168.135 5.53977C168.467 5.65341 168.77 5.83807 169.043 6.09375C169.315 6.34659 169.533 6.68182 169.695 7.09943C169.857 7.51705 169.938 8.03125 169.938 8.64205V9.06818H164.892V8.19886H168.915C168.915 7.82955 168.841 7.5 168.693 7.21023C168.548 6.92045 168.341 6.69176 168.071 6.52415C167.804 6.35653 167.489 6.27273 167.125 6.27273C166.724 6.27273 166.378 6.37216 166.085 6.57102C165.795 6.76705 165.572 7.02273 165.416 7.33807C165.26 7.65341 165.182 7.99148 165.182 8.35227V8.93182C165.182 9.42614 165.267 9.84517 165.438 10.1889C165.611 10.5298 165.851 10.7898 166.158 10.9688C166.464 11.1449 166.821 11.233 167.227 11.233C167.491 11.233 167.73 11.196 167.943 11.1222C168.159 11.0455 168.345 10.9318 168.501 10.7812C168.658 10.6278 168.778 10.4375 168.864 10.2102L169.835 10.483C169.733 10.8125 169.561 11.1023 169.32 11.3523C169.078 11.5994 168.78 11.7926 168.425 11.9318C168.07 12.0682 167.67 12.1364 167.227 12.1364ZM173.939 12.1364C173.393 12.1364 172.912 11.9986 172.494 11.723C172.077 11.4446 171.75 11.0526 171.514 10.5469C171.278 10.0384 171.161 9.4375 171.161 8.74432C171.161 8.05682 171.278 7.46023 171.514 6.95455C171.75 6.44886 172.078 6.05824 172.499 5.78267C172.919 5.5071 173.405 5.36932 173.956 5.36932C174.382 5.36932 174.719 5.44034 174.966 5.58239C175.216 5.72159 175.406 5.88068 175.537 6.05966C175.67 6.2358 175.774 6.38068 175.848 6.49432H175.933V3.27273H176.939V12H175.967V10.9943H175.848C175.774 11.1136 175.669 11.2642 175.533 11.446C175.396 11.625 175.202 11.7855 174.949 11.9276C174.696 12.0668 174.359 12.1364 173.939 12.1364ZM174.075 11.233C174.479 11.233 174.82 11.1278 175.098 10.9176C175.376 10.7045 175.588 10.4105 175.733 10.0355C175.878 9.65767 175.95 9.22159 175.95 8.72727C175.95 8.23864 175.879 7.81108 175.737 7.4446C175.595 7.07528 175.385 6.78835 175.107 6.58381C174.828 6.37642 174.484 6.27273 174.075 6.27273C173.649 6.27273 173.294 6.3821 173.01 6.60085C172.729 6.81676 172.517 7.1108 172.375 7.48295C172.236 7.85227 172.166 8.26705 172.166 8.72727C172.166 9.19318 172.237 9.61648 172.379 9.99716C172.524 10.375 172.737 10.6761 173.018 10.9006C173.303 11.1222 173.655 11.233 174.075 11.233Z" fill="black"/>
<path d="M200.818 4.21023V3.27273H207.363V4.21023H204.619V12H203.562V4.21023H200.818ZM209.864 8.0625V12H208.858V3.27273H209.864V6.47727H209.949C210.102 6.1392 210.332 5.87074 210.639 5.67188C210.949 5.47017 211.361 5.36932 211.875 5.36932C212.321 5.36932 212.712 5.45881 213.047 5.63778C213.382 5.81392 213.642 6.08523 213.827 6.4517C214.014 6.81534 214.108 7.27841 214.108 7.84091V12H213.102V7.90909C213.102 7.3892 212.967 6.98722 212.697 6.70312C212.43 6.41619 212.06 6.27273 211.585 6.27273C211.256 6.27273 210.96 6.34233 210.699 6.48153C210.44 6.62074 210.236 6.82386 210.085 7.09091C209.938 7.35795 209.864 7.68182 209.864 8.0625ZM220.073 9.32386V5.45455H221.078V12H220.073V10.892H220.005C219.851 11.2244 219.613 11.5071 219.289 11.7401C218.965 11.9702 218.556 12.0852 218.061 12.0852C217.652 12.0852 217.289 11.9957 216.971 11.8168C216.652 11.6349 216.402 11.3622 216.221 10.9986C216.039 10.6321 215.948 10.1705 215.948 9.61364V5.45455H216.953V9.54545C216.953 10.0227 217.087 10.4034 217.354 10.6875C217.624 10.9716 217.968 11.1136 218.385 11.1136C218.635 11.1136 218.89 11.0497 219.148 10.9219C219.409 10.794 219.628 10.598 219.804 10.3338C219.983 10.0696 220.073 9.73295 220.073 9.32386Z" fill="black"/>
<path d="M250.772 12V3.27273H256.005V4.21023H251.828V7.15909H255.613V8.09659H251.828V12H250.772ZM257.608 12V5.45455H258.58V6.44318H258.648C258.767 6.11932 258.983 5.85653 259.295 5.65483C259.608 5.45312 259.96 5.35227 260.352 5.35227C260.426 5.35227 260.518 5.35369 260.629 5.35653C260.74 5.35937 260.824 5.36364 260.881 5.36932V6.39205C260.847 6.38352 260.768 6.37074 260.646 6.35369C260.527 6.33381 260.401 6.32386 260.267 6.32386C259.949 6.32386 259.665 6.39062 259.415 6.52415C259.168 6.65483 258.972 6.83665 258.827 7.0696C258.685 7.29972 258.614 7.5625 258.614 7.85795V12H257.608ZM262.073 12V5.45455H263.078V12H262.073ZM262.584 4.36364C262.388 4.36364 262.219 4.29688 262.077 4.16335C261.938 4.02983 261.868 3.86932 261.868 3.68182C261.868 3.49432 261.938 3.33381 262.077 3.20028C262.219 3.06676 262.388 3 262.584 3C262.78 3 262.948 3.06676 263.087 3.20028C263.229 3.33381 263.3 3.49432 263.3 3.68182C263.3 3.86932 263.229 4.02983 263.087 4.16335C262.948 4.29688 262.78 4.36364 262.584 4.36364Z" fill="black"/>
</svg>
