<svg width="96" height="96" viewBox="0 0 36 36" fill="none" xmlns="http://www.w3.org/2000/svg">
<g clip-path="url(#clip0_89_39)">
<path d="M18.475 15C17.245 11.505 13.915 9 10 9C5.035 9 1 13.035 1 18C1 22.965 5.035 27 10 27C13.915 27 17.245 24.495 18.475 21H25V27H31V21H34V15H18.475ZM10 21C8.35 21 7 19.65 7 18C7 16.35 8.35 15 10 15C11.65 15 13 16.35 13 18C13 19.65 11.65 21 10 21Z" fill="black"/>
</g>
<defs>
<clipPath id="clip0_89_39">
<rect width="36" height="36" fill="white"/>
</clipPath>
</defs>
</svg>
